<svg id="Layer_1" data-name="Layer 1" xmlns="http://www.w3.org/2000/svg" viewBox="0 0 89.58 65.05"><title>Artboard 15</title><path d="M20.85,14.58a1,1,0,1,0-1.46,0A1.06,1.06,0,0,0,20.85,14.58Zm48,22.85v1.42a1,1,0,1,0,2.06,0V37.43a1,1,0,0,0-2.06,0ZM89.4,27.87,80.82,15.07a1,1,0,0,0-.85-.46H61.14V12.79a1,1,0,0,0-.15-.54L58.33,8a1,1,0,0,0-1.75,1.09l2.5,4V20.3H56.55a1,1,0,0,0-1,1v8.4H52.24l.14-.87a1,1,0,0,0-.06-.56l-3.51-8.62A27.39,27.39,0,0,0,27.37,2.92L7.29,0a1,1,0,0,0-1,.45L.19,9.56a1,1,0,0,0-.17.57v1.4H0V26a1,1,0,0,0,.05.33L6.18,44.49H1a1,1,0,0,0-1,1v8.54a1,1,0,0,0,1,1h9l-.2.91a7.43,7.43,0,0,0,13.07,6.23l.59-.74.59.74a7.43,7.43,0,1,0,0-9.24l-.59.74L22.88,53a7.42,7.42,0,0,0-11.44-.23l-.22.26H2.06V46.55h57V53H50.84a1,1,0,1,0,0,2.06H65.49l-.2.91a7.43,7.43,0,1,0,14.51,0l-.2-.91h9a1,1,0,0,0,1-1V28.45A1,1,0,0,0,89.4,27.87ZM29.87,52.24a5.38,5.38,0,1,1-5.37,5.38A5.38,5.38,0,0,1,29.87,52.24Zm-12.81,0a5.38,5.38,0,1,1-5.37,5.38A5.38,5.38,0,0,1,17.06,52.24Zm26-38.3a25.32,25.32,0,0,1,3.88,6.52l3.31,8.11L42.77,39.64H34a25.27,25.27,0,0,1-7.13-1l-1-.29L42.38,13.15ZM33.15,23.5l-4.44,6.79-9.87,2.06,4.44-6.79Zm-8.27-.37,5-7.71,9.87-2.06-5,7.71Zm2.24,9.6L24,37.56l-.59-.27a25.31,25.31,0,0,1-3.22-1.79l-1.51-1ZM35.7,7.85c.65.36,1.29.75,1.89,1.15s1,.73,1.54,1.12l1.26,1L31.51,13l3.57-5.47ZM7.63,2.14,27.08,5a25.33,25.33,0,0,1,5.25,1.35l.88.33L16.33,32.44l-.65-.69a25.43,25.43,0,0,1-3-3.83l-.28-.43.34-.46,4.71-7.2a1,1,0,1,0-1.72-1.13l-4.47,6.84-9-15.37ZM8.35,44.5,2.07,25.72V13.93l8.32,14.22c.37.64.79,1.29,1.23,1.92l.09.13,0,.16,4.2,14.15Zm31.15,0H18.09L15,34.17l1.87,1.5c.59.48,1.21.93,1.84,1.36A27.29,27.29,0,0,0,34,41.69h7.37Zm16,0H42l8.55-12.71h5Zm2.06,0V22.36h5.06V44.49Zm15,18.5a5.38,5.38,0,1,1,5.38-5.37A5.38,5.38,0,0,1,72.54,63Zm15-10h-4V49h4Zm0-6h-5a1,1,0,0,0-1,1v5h-3.1l-.22-.26a7.41,7.41,0,0,0-11.28,0l-.28.33-.43-.08L66,53H61.12V46.55h2.55a1,1,0,0,0,1-1V21.33a1,1,0,0,0-1-1H61.14V16.67h7.72V32a1,1,0,0,0,.73,1l17.93,5.47Zm0-10.68-16.6-5.06V16.67h8.5l8.1,12.09ZM43.72,53A1,1,0,0,0,43,54.79a1.06,1.06,0,0,0,1.46,0A1,1,0,0,0,43.72,53Z"/></svg>