<svg id="Layer_1" data-name="Layer 1" xmlns="http://www.w3.org/2000/svg" viewBox="0 0 63.17 71.79"><title>Artboard 16</title><path d="M43.71,36.21h0a1,1,0,0,0-.73.32l0,0a1,1,0,0,0,0,1.47,1.07,1.07,0,0,0,1.49-1.53A1,1,0,0,0,43.71,36.21ZM39.21,39.4h0A16,16,0,0,1,17,18.8a1,1,0,0,0-.52-1.38,1,1,0,0,0-.43-.09,1,1,0,0,0-.95.61A18,18,0,0,0,40.21,41.22a1,1,0,1,0-1-1.83Zm2.45-17.58-6.36-.92-2.84-5.76a1,1,0,0,0-.93-.58,1,1,0,0,0-.93.58L27.74,20.9l-6.36.92a1,1,0,0,0-.84.71,1,1,0,0,0,.26,1.07h0l4.6,4.48-1.08,6.33a1,1,0,0,0,1.51,1.1l5.69-3,5.69,3a1,1,0,0,0,1.51-1.1l-1.09-6.33,4.6-4.49a1,1,0,0,0,.26-1.07A1.05,1.05,0,0,0,41.65,21.82ZM35.78,27a1,1,0,0,0-.3.92l.82,4.79L32,30.42a1,1,0,0,0-1,0l-4.3,2.26.82-4.79a1,1,0,0,0-.3-.92l-3.48-3.39,4.81-.7a1,1,0,0,0,.78-.57L31.51,18l2.15,4.36a1,1,0,0,0,.79.57l4.81.7ZM63,62.06,51.19,41.47l.16-.2a25.13,25.13,0,0,0,5.57-15.86,25.41,25.41,0,0,0-50.82,0,25.12,25.12,0,0,0,5.57,15.86l.16.2L0,62.06a1,1,0,0,0,1,1.55l9.43-1.26,3.62,8.8a1,1,0,0,0,.89.64h0a1.07,1.07,0,0,0,1-.52L27.9,50.58l.25,0a25.52,25.52,0,0,0,6.73,0l.26,0,.12.24L47.08,71.27a1,1,0,0,0,.9.52,1.07,1.07,0,0,0,1-.64l3.62-8.8L62,63.61a1,1,0,0,0,1-1.55ZM15.21,68.39,12.29,61.3l2.39-3.9a1,1,0,0,0-1.78-1.09L10.5,60.24l-7.64,1L13.3,43.11l.35.34A25.45,25.45,0,0,0,25.25,50l.48.12ZM31.51,48.74A23.33,23.33,0,1,1,54.84,25.41,23.35,23.35,0,0,1,31.51,48.74Zm21,11.5-2.41-3.93a1,1,0,1,0-1.78,1.09l2.39,3.9-2.92,7.09L37.3,50.16l.48-.12a25.44,25.44,0,0,0,11.61-6.58l.35-.34L60.17,61.27ZM19.81,14.56a1.06,1.06,0,0,0,.31-.77,1,1,0,0,0-1.8-.67,1.06,1.06,0,0,0-.31.78,1,1,0,0,0,.33.72A1.07,1.07,0,0,0,19.81,14.56ZM31.51,7.37a18,18,0,0,0-8.84,2.31,1,1,0,1,0,1,1.82A16,16,0,0,1,45.93,32.28a1,1,0,0,0,.49,1.39,1.07,1.07,0,0,0,1.39-.49A18.05,18.05,0,0,0,31.51,7.37Z"/></svg>