<svg id="Layer_1" data-name="Layer 1" xmlns="http://www.w3.org/2000/svg" viewBox="0 0 52.85 67.5"><title>Artboard 14</title><path d="M30.67,35.6h-8.5a1,1,0,1,0,0,2h8.5a1,1,0,1,0,0-2Zm4.25-5.7h-17a1,1,0,0,0,0,2h17a1,1,0,0,0,0-2ZM50.3,60.38c.47-1.81,2.75-11.45,2.75-26.63S50.77,8.93,50.3,7.12H50l.19-.58L52.85,0H0L2.9,7.12H2.54C2.08,8.93-.21,18.57-.21,33.75S2.08,58.57,2.54,60.38h.3L2.66,61,0,67.5H52.85L50,60.38Zm.5-35.2c.17,2.81.25,5.69.25,8.57s-.08,5.76-.25,8.57l0,.4H40.59l.37-.64a16.72,16.72,0,0,0,0-16.66l-.37-.64H50.78ZM26.42,48.5A14.75,14.75,0,1,1,41.18,33.75,14.77,14.77,0,0,1,26.42,48.5ZM11.19,2v.42a1,1,0,0,0,2,0V2h3.7v.42a1,1,0,0,0,2,0V2h3.7v.42a1,1,0,0,0,2,0V2h3.7v.42a1,1,0,0,0,2,0V2H34v.42a1,1,0,0,0,2,0V2h3.7v.42a1,1,0,0,0,2,0V2h8.22L47.8,7.12H5.05L3,2ZM2.25,22.32c.23-2.78.53-5.47.92-8C3.43,12.6,3.73,11,4,9.45l.07-.34H48.73l.07.34c.33,1.53.62,3.17.88,4.87.38,2.53.69,5.22.92,8l0,.46H39.08l-.13-.14a16.72,16.72,0,0,0-25,0l-.13.14H2.21Zm-.2,20c-.17-2.81-.25-5.69-.25-8.57S1.88,28,2,25.18l0-.4H12.26l-.37.64a16.72,16.72,0,0,0,0,16.66l.37.64H2.07Zm.2,2.86,0-.46H13.77l.13.14a16.73,16.73,0,0,0,25,0l.13-.14H50.64l0,.46c-.23,2.78-.53,5.47-.92,8h0c-.26,1.71-.56,3.35-.88,4.87l-.07.34H4.12L4,58c-.32-1.51-.62-3.15-.88-4.87C2.78,50.64,2.47,48,2.25,45.18ZM41.66,65.5v-.42a1,1,0,0,0-2,0v.42H36v-.42a1,1,0,0,0-2,0v.42h-3.7v-.42a1,1,0,0,0-2,0v.42h-3.7v-.42a1,1,0,0,0-2,0v.42h-3.7v-.42a1,1,0,0,0-2,0v.42h-3.7v-.42a1,1,0,0,0-2,0v.42H3l2.08-5.12H47.8l2.08,5.12Z"/></svg>