<svg id="Layer_1" data-name="Layer 1" xmlns="http://www.w3.org/2000/svg" viewBox="0 0 68.57 68.93"><title>Artboard 10</title><path d="M59.7,61.37h-2v2h2ZM7.67,58a3.23,3.23,0,1,0,3.23,3.23A3.23,3.23,0,0,0,7.67,58Zm0,4.44a1.21,1.21,0,1,1,1.21-1.21A1.21,1.21,0,0,1,7.67,62.48Zm52-10h-2v2h2ZM5.45,11.25A5.45,5.45,0,1,0,0,5.8,5.45,5.45,0,0,0,5.45,11.25Zm0-8.87A3.43,3.43,0,1,1,2,5.8,3.43,3.43,0,0,1,5.45,2.38Zm8.77,50.12h-2v2h2ZM4.34,31.22A4.34,4.34,0,1,0,0,26.88,4.34,4.34,0,0,0,4.34,31.22Zm0-6.66A2.32,2.32,0,1,1,2,26.88,2.32,2.32,0,0,1,4.34,24.56ZM6.66,16.9a3.23,3.23,0,1,0,3.23-3.23A3.23,3.23,0,0,0,6.66,16.9Zm4.44,0a1.21,1.21,0,1,1-1.21-1.21A1.21,1.21,0,0,1,11.09,16.9Zm56.47-1H52a1,1,0,0,0-1,1v4.44a1,1,0,0,0,1,1h1.21v40a6.56,6.56,0,1,0,13.11,0v-40h1.21a1,1,0,0,0,1-1V16.9A1,1,0,0,0,67.56,15.89ZM64.34,62.38a4.54,4.54,0,0,1-9.07,0V37.87h9.07Zm0-26.52H55.26V22.34h9.07Zm2.22-15.53H53V17.91H66.56ZM61.92,56.93h-2v2h2ZM16.54,55.82A3.23,3.23,0,1,0,19.77,59,3.23,3.23,0,0,0,16.54,55.82Zm0,4.44A1.21,1.21,0,1,1,17.75,59,1.21,1.21,0,0,1,16.54,60.26Zm4.54,4.24h2v-2h-2ZM61.92,48.06h-2v2h2ZM24.3,51.38a3.23,3.23,0,1,0,3.23,3.23A3.23,3.23,0,0,0,24.3,51.38Zm0,4.44a1.21,1.21,0,1,1,1.21-1.21A1.21,1.21,0,0,1,24.3,55.82Zm19.93-7.95-.06,0V40.09h2.22v-2H33.28v2H35.5v7.75l-.06,0a10.81,10.81,0,0,0-2.07,1.23l-.09.07-.05-.1-6.8-12.49V31.22h2.22v-2H26.42V25.77a1,1,0,0,0-1-1H24.2V21.33a1,1,0,0,0-1-1H16.54a1,1,0,0,0-1,1v3.43H14.32a1,1,0,0,0-1,1V29.2H11.09v2h2.22v5.41L.66,59.79A5.46,5.46,0,0,0,0,62.4v1.09a5.45,5.45,0,0,0,5.45,5.45H34.29a5.42,5.42,0,0,0,2.23-.49l0,0h0a11,11,0,0,0,7.64-20.57Zm-6.72-7.78h4.64v2.42H37.51Zm-20-17.75h4.64v2.42H17.55Zm-2.22,4.44H24.4V29.2H15.33ZM11.25,44.6l4-7.25a1,1,0,0,0,.12-.48V31.22H24.4v5.65a1,1,0,0,0,.12.48l4,7.39H28.4a3.22,3.22,0,0,0-2.13.93l-.92.92a1.22,1.22,0,0,1-.86.35h-.38a1.22,1.22,0,0,1-.85-.35l-.92-.92a3.21,3.21,0,0,0-2.28-.95h-.38a3.21,3.21,0,0,0-2.28.95l-.92.92a1.22,1.22,0,0,1-.86.35h-.38a1.22,1.22,0,0,1-.85-.35l-.92-.92a3.22,3.22,0,0,0-2.13-.93h-.16ZM5.45,66.91A3.43,3.43,0,0,1,2,63.49V62.4a3.44,3.44,0,0,1,.42-1.64l7.64-14h1.1a1.21,1.21,0,0,1,.85.35L13,48a3.21,3.21,0,0,0,2.28.95h.38A3.21,3.21,0,0,0,17.9,48l.92-.92a1.22,1.22,0,0,1,.86-.35h.38a1.21,1.21,0,0,1,.86.35l.92.92a3.21,3.21,0,0,0,2.28.95h.38A3.21,3.21,0,0,0,26.78,48l.92-.92a1.22,1.22,0,0,1,.85-.35h1.1l2.07,3.79,0,.05a10.94,10.94,0,0,0,1.59,16.14l.24.18Zm43.36-9a9,9,0,0,1-17.95,0v-.1h.29a1.22,1.22,0,0,1,.85.35l.92.92a3.2,3.2,0,0,0,2.28.95h.38a3.2,3.2,0,0,0,2.28-.95l.92-.92a1.22,1.22,0,0,1,.85-.35H40a1.22,1.22,0,0,1,.85.35l.92.92a3.2,3.2,0,0,0,2.28.95h.38a3.2,3.2,0,0,0,2.28-.95l.92-.92a1.22,1.22,0,0,1,.85-.35h.29Zm-.28-2.11H48.4a3.22,3.22,0,0,0-2.17.93l-.92.92a1.22,1.22,0,0,1-.85.35h-.38a1.22,1.22,0,0,1-.85-.35l-.92-.92A3.2,3.2,0,0,0,40,55.82h-.38a3.2,3.2,0,0,0-2.28.95l-.92.92a1.22,1.22,0,0,1-.85.35h-.38a1.22,1.22,0,0,1-.85-.35l-.92-.92a3.22,3.22,0,0,0-2.17-.93h-.12l0-.12a9,9,0,0,1,5.67-6.22,1,1,0,0,0,.67-1v-4h4.64v4a1,1,0,0,0,.67,1,9,9,0,0,1,5.67,6.22Zm-31-43.37a1.21,1.21,0,0,1,1.21-1.21h3.43v6.66h2V11.25H35.5v24.4h2V11.25h3.43a1.21,1.21,0,0,1,1.21,1.21V35.66h2V12.46a3.23,3.23,0,0,0-3.23-3.23H37.51V8a1.21,1.21,0,0,1,1.21-1.21H52A1.21,1.21,0,0,1,53.24,8v5.45h2V8A3.23,3.23,0,0,0,52,4.8H38.72A3.23,3.23,0,0,0,35.5,8V9.23H24.2V3.59a1.21,1.21,0,0,1,1.21-1.21H63.13a1.21,1.21,0,0,1,1.21,1.21v9.88h2V3.59A3.23,3.23,0,0,0,63.13.36H25.41a3.23,3.23,0,0,0-3.23,3.23V9.23H18.76a3.23,3.23,0,0,0-3.23,3.23v5.45h2Zm8,52h2v-2h-2ZM59.7,43.62h-2v2h2ZM23.29,62.28h2v-2h-2Z"/></svg>