<svg id="Layer_1" data-name="Layer 1" xmlns="http://www.w3.org/2000/svg" viewBox="0 0 60.39 43"><defs><style>.cls-1{fill:#fff;}</style></defs><title>Artboard 18</title><path class="cls-1" d="M54.16,16H45.82a4,4,0,0,0-3.15,1.54l0,0-3.32-5a25.43,25.43,0,0,0-7.56-7.4l-1-.61a25.57,25.57,0,0,0-13.75-4H12.86a1,1,0,0,0-.9.53L9.82,4.92,2.32,3a1,1,0,0,0-1.25.75,1,1,0,0,0,0,.15L0,14.28a1,1,0,0,0,.78,1.1l4.13,1a1,1,0,0,0,.25,0,1,1,0,0,0,.9-.53l1.66-3,1,1.67v7.63H3.56a1,1,0,0,0-1,1V30.5h-1a1,1,0,0,0-1,1v6.2a1,1,0,0,0,1,1h3.1a4.18,4.18,0,0,0,8.34.45,4.11,4.11,0,0,0,8.19-.45H47a4.13,4.13,0,1,0,8.27,0h4.13a1,1,0,0,0,1-1V22.27A6.25,6.25,0,0,0,54.16,16ZM37.61,13.69l3,4.46L36,26.37H31.53a23.5,23.5,0,0,1-4.27-.4L35.6,11.13a23.61,23.61,0,0,1,2,2.56Zm-7.9-7.41,1,.61A23.58,23.58,0,0,1,34.1,9.58l-8.94,15.9a23.15,23.15,0,0,1-10.23-6V16.66l8-13.31a23.47,23.47,0,0,1,6.79,2.93ZM13.47,2.6h3.6a23.58,23.58,0,0,1,3.7.3L14.74,13a3.07,3.07,0,0,0-5.22-1l-.64-1.06ZM16,28.43a1,1,0,0,1,1,1v1h-6.2V14a1,1,0,0,1,2.07,0V25.33a3.1,3.1,0,0,0,3.1,3.1ZM4.65,14.22l-2.5-.62L3,5.34l5.8,1.45ZM4.59,24.3H8.73v2.07H4.59Zm0,4.13H8.73V30.5H4.59Zm4.13,12.4a2.07,2.07,0,1,1,2.07-2.07,2.07,2.07,0,0,1-2.07,2.07Zm8.27,0a2.07,2.07,0,1,1,2.07-2.07A2.07,2.07,0,0,1,17,40.83Zm24.8-4.13H20.55a4.11,4.11,0,0,0-7.62,1.69A4.18,4.18,0,0,0,5.17,36.7H2.53V32.57H41.79Zm0-6.2H19.06v-1a3.1,3.1,0,0,0-3.1-3.1,1,1,0,0,1-1-1v-3A25.12,25.12,0,0,0,26,27.81l.16.09,0,0a25.61,25.61,0,0,0,5.34.58h5.1a1,1,0,0,0,.9-.53l4.26-7.67Zm9.3,10.33a2.07,2.07,0,1,1,2.07-2.07,2.07,2.07,0,0,1-2.07,2.07Zm7.23-8.27H56.26v2.07h2.07V36.7H54.65a4.1,4.1,0,0,0-7.12,0H43.86V20.06a2,2,0,0,1,2-2h8.33a4.16,4.16,0,0,1,3.58,2.07H47a1,1,0,0,0-1,1v6.2a1,1,0,0,0,1,1h5.77L54.5,30.2a1,1,0,0,0,.73.3h3.1Zm0-10.3v6.16H55.65l-1.76-1.76a1,1,0,0,0-.73-.3H48V22.23H58.33a.1.1,0,0,0,0,0Zm0,0"/></svg>