<svg id="Layer_1" data-name="Layer 1" xmlns="http://www.w3.org/2000/svg" viewBox="0 0 50.68 50.13"><defs><style>.cls-1{fill:#fff;}</style></defs><title>Artboard 19</title><path class="cls-1" d="M20.41,16a1,1,0,0,0,.73-.3l9.3-9.3a1,1,0,0,0,0-1.45A1,1,0,0,0,29,5l-9.3,9.3A1,1,0,0,0,20.41,16Zm4,14.48h0a1,1,0,0,0,1.34,0L42,16.54a1,1,0,0,0-.67-1.81h-6V6.79a1,1,0,0,0-2.05,0v9a1,1,0,0,0,1,1h4.2L25.06,28.36,11.56,16.79h4.2a1,1,0,0,0,1-1V2.05H33.34v1.4a1,1,0,0,0,2.05,0V1a1,1,0,0,0-1-1H15.76a1,1,0,0,0-1,1v13.7h-6a1,1,0,0,0-.67,1.81ZM28.94,16a2.58,2.58,0,1,0-2.58-2.58A2.58,2.58,0,0,0,28.94,16Zm0-3.1a.52.52,0,1,1-.52.52A.52.52,0,0,1,28.94,12.91ZM23.76,7.23a2.58,2.58,0,1,0-2.58,2.58A2.58,2.58,0,0,0,23.76,7.23Zm-3.1,0a.52.52,0,1,1,.52.52A.52.52,0,0,1,20.66,7.23ZM49.35,28.9a4.46,4.46,0,0,0-3.24-1.82,3.3,3.3,0,0,0-2.67,1l-.24.26a4.44,4.44,0,0,0-2.42-1,3.29,3.29,0,0,0-2.67,1c-1.31,1.39-3.64,4.1-5.41,6.2a3.77,3.77,0,0,0-.59-.24c-.53-.23-13.13-5.64-18.68-5.64-8.91,0-13,4.82-13.19,5A1,1,0,0,0,1.81,35,11.11,11.11,0,0,1,4.6,32.9a17.82,17.82,0,0,1,8.83-2.16c5.18,0,17.77,5.43,17.9,5.48l.1,0a2.08,2.08,0,0,1,1.36,2.6,2.09,2.09,0,0,1-1,1.19,2.2,2.2,0,0,1-1.68.17L22.23,38a1,1,0,0,0-.55,2l7.91,2.18a4.17,4.17,0,0,0,4.59-1.56,4.17,4.17,0,0,0,.74-1.94l1.88-.2a1,1,0,0,0,.68-.36c.05-.06,5.26-6.31,7.46-8.64a1.21,1.21,0,0,1,1-.37,2.48,2.48,0,0,1,1.73,1c.88,1.23-.26,2.63-.63,3-2,2.11-5.55,6.43-6.36,7.4L25.8,48l-14.29-6a1,1,0,0,0-.4-.08H1a1,1,0,0,0,0,2.05H10.9L25.44,50a1,1,0,0,0,.86,0L41.8,42.26a1.05,1.05,0,0,0,.34-.27c.44-.53,4.37-5.28,6.41-7.47C50.24,32.72,50.54,30.56,49.35,28.9ZM36.17,36.49l-1.54.16a4.19,4.19,0,0,0-.39-.72c1.49-1.76,4-4.73,5.37-6.16a1.26,1.26,0,0,1,1-.36,2.35,2.35,0,0,1,1.18.45C39.84,32.11,37.28,35.16,36.17,36.49Z"/></svg>