<svg id="Layer_1" data-name="Layer 1" xmlns="http://www.w3.org/2000/svg" viewBox="0 0 111.8 69.34"><defs><style>.cls-1,.cls-2{fill:none;stroke:#000;stroke-width:2px;}.cls-1{stroke-miterlimit:10;}.cls-2{stroke-linecap:round;stroke-linejoin:round;}</style></defs><title>Artboard 11 copy</title><path class="cls-1" d="M37.05,52.08A6.06,6.06,0,0,1,31,58.14h0a6.06,6.06,0,0,1-6.06-6.06V2.84H37.05"/><path class="cls-1" d="M49.17,52.08a6.06,6.06,0,0,1-6.06,6.06h0a6.06,6.06,0,0,1-6.06-6.06V2.84H49.17"/><path class="cls-1" d="M61.28,2.84H49.17V52.08a6.06,6.06,0,0,0,6.06,6.06h0a6.06,6.06,0,0,0,6.06-6.06Z"/><polygon class="cls-1" points="31 61.96 24.94 67.22 37.05 67.22 31 61.96"/><line class="cls-1" x1="31" y1="61.96" x2="31" y2="58.14"/><polygon class="cls-1" points="43.11 61.96 37.05 67.22 49.17 67.22 43.11 61.96"/><line class="cls-1" x1="43.11" y1="61.96" x2="43.11" y2="58.14"/><polygon class="cls-1" points="55.22 61.96 49.17 67.22 61.28 67.22 55.22 61.96"/><line class="cls-1" x1="55.22" y1="61.96" x2="55.22" y2="58.14"/><polyline class="cls-1" points="24.94 52.48 22.15 52.48 14.18 67.22 3.67 67.22 0 59.03 11.5 59.03 19.47 44.29 22.26 44.29 24.94 44.29"/><polyline class="cls-1" points="61.28 32.11 71.43 32.11 63.56 48.26 61.28 48.26"/><path class="cls-1" d="M69.17,36.9s10.8-1,19.57,2.5,7.09,9.59,5,14.46c-2.42,4.72-6.05,9.9-14.33,5.37S65,45.74,65,45.74"/><path class="cls-2" d="M82.85,41.55a23.9,23.9,0,0,1,3.4,1.05c6.5,2.59,5.25,7.11,3.7,10.72"/><circle class="cls-1" cx="70.3" cy="64.1" r="3.12"/><circle class="cls-1" cx="80.21" cy="64.1" r="3.12"/><circle class="cls-1" cx="103.11" cy="64.1" r="3.12"/><line class="cls-1" x1="63.99" y1="61.96" x2="68.03" y2="61.96"/><line class="cls-1" x1="72.57" y1="61.96" x2="77.93" y2="61.96"/><line class="cls-1" x1="82.48" y1="61.96" x2="100.56" y2="61.96"/><polyline class="cls-1" points="105.39 61.96 111.8 61.96 111.8 54.53 106.7 46.45 95.35 46.45"/><line class="cls-1" x1="94.7" y1="51.31" x2="94.7" y2="61.96"/><line class="cls-1" x1="71.43" y1="53.18" x2="67.18" y2="61.96"/><line class="cls-1" x1="24.94" y1="7.62" x2="61.28" y2="7.62"/></svg>