<svg id="Layer_1" data-name="Layer 1" xmlns="http://www.w3.org/2000/svg" viewBox="0 0 54 54"><defs><style>.cls-1{fill:#ffe459;}</style></defs><title>Artboard 26 copy 3</title><circle class="cls-1" cx="27" cy="27" r="27"/><path d="M37.61,28a1,1,0,0,1,0-2h2.84A13.48,13.48,0,0,0,28,13.55v2.84a1,1,0,0,1-2,0V13.55A13.48,13.48,0,0,0,13.55,26h2.84a1,1,0,0,1,0,2H13.55A13.48,13.48,0,0,0,26,40.45V37.61a1,1,0,0,1,2,0v2.84A13.48,13.48,0,0,0,40.45,28Zm-3.8,6a1,1,0,0,1-1.41,0L26.28,27.7A1,1,0,0,1,26,27V20.78a1,1,0,1,1,2,0V26.6l5.84,6A1,1,0,0,1,33.81,34Z"/></svg>