<svg id="Layer_1" data-name="Layer 1" xmlns="http://www.w3.org/2000/svg" viewBox="0 0 54 54"><defs><style>.cls-1{fill:#ffe459;}</style></defs><title>Artboard 26 copy</title><circle class="cls-1" cx="27" cy="27" r="27"/><path d="M37.42,35.58c-.31-.51-1.82-3-2.84-4.42-.41-.56-.62-.64-.71-.64a3.28,3.28,0,0,0-1.32.62,4.57,4.57,0,0,1-2.67.94,3.85,3.85,0,0,1-2.5-.94L27.22,31,27,30.75l-3.56-4.31c-1.1-1.3-1.34-3.61.73-5.59,1.06-1.12.94-1.25.3-1.94-1.15-1.23-3.29-3.16-3.68-3.51l-.07-.06-.06-.06a.72.72,0,0,0-.39-.09,4.06,4.06,0,0,0-2.36,1.31c-2.39,2.23-1.21,7.68.53,10.6a61.15,61.15,0,0,0,7,8.46,13.06,13.06,0,0,0,7.73,3.25,4.23,4.23,0,0,0,2.58-.74c1.45-1.07,1.91-2,1.72-2.47Z"/></svg>