<svg id="Layer_1" data-name="Layer 1" xmlns="http://www.w3.org/2000/svg" viewBox="0 0 54 61.12"><defs><style>.cls-1{fill:#ccc;}.cls-2{fill:#fff;}.cls-2,.cls-3,.cls-4,.cls-5{fill-rule:evenodd;}.cls-3{fill:#ffe459;}.cls-4{fill:#999;}</style></defs><title>Artboard 1</title><path class="cls-1" d="M52.47,32.23c.16-1.58,1.21-11.57,1.21-15.67v-.67a1.07,1.07,0,0,0-1-.95l-.77-.1A9,9,0,0,1,44,8.33l-.13-.66a1.13,1.13,0,0,0-1.13-.82H39.21V3.68a1.16,1.16,0,0,0-1.21-1h-.29a1.29,1.29,0,0,0-.74.25L32.35,6.29,28.13.38a1.14,1.14,0,0,0-1-.38h-.34a1.14,1.14,0,0,0-1,.39l-4.22,6L17,3a1.31,1.31,0,0,0-.74-.27h-.29a1.05,1.05,0,0,0-1.09,1V6.85H11.18a1.13,1.13,0,0,0-1.12.8l-.15.66a8.94,8.94,0,0,1-7.84,6.51H2l-.74.11a1,1,0,0,0-.93.95v.67c0,4.14,1,14.09,1.16,15.67A17,17,0,0,0,0,38.44v1.44a1,1,0,0,0,.6.85,1.31,1.31,0,0,0,.54.11,1.3,1.3,0,0,0,.63-.16l1.42-.8.73-.38a29.47,29.47,0,0,0,5.2,13.93l.78,1.13a1.22,1.22,0,0,0,1,.5h0a1.23,1.23,0,0,0,1-.49l.8-1.1a6.38,6.38,0,0,1,.72-.81c2.89,3.55,7.61,6.27,11.28,7.71.46.18.77.32,1,.42a2.75,2.75,0,0,0,1.11.33h.43a2.75,2.75,0,0,0,1.11-.33c.23-.1.54-.25,1-.43,3.67-1.43,8.39-4.16,11.28-7.71a6.28,6.28,0,0,1,.72.8l.8,1.12a1.23,1.23,0,0,0,1,.49h0a1.22,1.22,0,0,0,1-.5l.78-1.11A29.51,29.51,0,0,0,50,39.51c.25.12.49.24.73.38l1.43.8a1.3,1.3,0,0,0,.63.16,1.31,1.31,0,0,0,.53-.11,1,1,0,0,0,.61-.84l0-1.45A17,17,0,0,0,52.47,32.23Z"/><path class="cls-2" d="M27,23.28c-.65-.23-6.18-2.2-7.15-2.67S11.22,30.7,11.22,30.7l4.1-.21L12.86,35.4s3.2.07,4.18,1a13.19,13.19,0,0,1,1.8,2.14s-1.48,2.56,2.3,4.15c-.33,2.21.66,6.15.66,6.15l1.23-1L24,50l1.15-1.24,1.52,2.42v1l.31-.49.31.49v-1l1.52-2.42L29.95,50l1-2.21,1.23,1s1-3.94.66-6.15c3.77-1.59,2.3-4.15,2.3-4.15a13.19,13.19,0,0,1,1.8-2.14c1-.9,4.18-1,4.18-1l-2.46-4.91,4.1.21s-7.58-10.6-8.61-10.09S27.63,23,27,23.28Z"/><path class="cls-3" d="M49.75,31.6,51.4,15.79s-4.33,1.71-8-3.62c-1.72-3.73-1.8-3.66-1.8-3.66l-29.44.21a10.91,10.91,0,0,1-4.92,6.22c-3.94,2.28-4.67,1.73-4.67,1.73s0,12.4,1.83,15.67,8.07-10.28,8.07-10.28,9.12-2.9,10.93-2.76,17.67.13,17.38.9,6.4,12.3,7,12.37S49.75,31.6,49.75,31.6Z"/><path class="cls-2" d="M22.18,8.72,27,2.29l4.73,6.84,5.39-3.87V16.74s-8.1,2.08-8.85,1.52S17.74,17,17.74,17l-.42-1V5.33Z"/><path class="cls-2" d="M22.34,8.72l.27-.24v8.92c-1.41-.1-2.47-.19-3.18-.26V6.78Z"/><path class="cls-4" d="M18.92,21.15a67.19,67.19,0,0,0-7.65,9.55l4.1-.21L12.91,35.4s5-.34,6,3.11a5.34,5.34,0,0,0,.62,3.12l1.63,1.44.29,3.72.41,2,1.48-.47.54,1.23.64-.2.05.07.64-.71,1.51,3.37h.5l1.51-3.37.64.7.05-.07.64.21.55-1.22,1.48.47.41-2,.29-3.72,1.63-1.44a5.34,5.34,0,0,0,.62-3.12c1-3.45,6-3.11,6-3.11l-2.46-4.91,4.1.21A67.19,67.19,0,0,0,35,21.15l-1-.54-6.21,2.33v0h-.13l-.09,0L27,23l-.66,0-.09,0h-.13v0l-6.21-2.33-1,.54ZM28.9,58l-.12.8L27,58.39l-1.8.38-.12-.8a16.43,16.43,0,0,1-1.94-.51c-.57-.28-7-5-7-5l-2-2.07-3,1.94A16.48,16.48,0,0,1,7.62,45.7,48,48,0,0,1,6,36.78L2.37,38s.49-6.08,3.69-9.88a48.75,48.75,0,0,1,4.1-4.56l-3.61-.9s2.38-3,4.84-4,4.86-2.63,8.12-3c2.54-.32,6,1.15,7.47,1.82,1.42-.67,4.93-2.14,7.47-1.82,3.26.41,5.66,2,8.12,3s4.84,4,4.84,4l-3.61.9a48.75,48.75,0,0,1,4.1,4.56c3.2,3.8,3.69,9.88,3.69,9.88L48,36.78a48,48,0,0,1-1.64,8.92,16.48,16.48,0,0,1-3.44,6.57l-3-1.94-2,2.07s-6.4,4.77-7,5A16.43,16.43,0,0,1,28.9,58Z"/><path class="cls-5" d="M26.32,27.47a4.87,4.87,0,0,1-2,2.86,23.1,23.1,0,0,0-4,3.55,8,8,0,0,1,3-4.24c-5.25.51-3.61-3-6-1.71.55-1.8,1.91-2.53,2.73-2.12s4.15,2.86,4.15,2.86a4.58,4.58,0,0,0,2.08-1.2Zm1.31,0a4.87,4.87,0,0,0,2,2.86,23.1,23.1,0,0,1,4,3.55,8,8,0,0,0-3-4.24c5.25.51,3.61-3,6-1.71-.55-1.8-1.91-2.53-2.73-2.12s-4.15,2.86-4.15,2.86a4.58,4.58,0,0,1-2.08-1.2ZM38.15,9.52H41.3a12.26,12.26,0,0,0,9.37,7.72c-.07,3.13-.57,8.61-.9,12a24.25,24.25,0,0,0-4.12-5.39l4.09-.75c-3.29-3-7-6.16-11.59-7.5V9.52ZM50.91,37c-.58-5.34-5.2-11.49-9.41-15l-1.24-1.22a9.49,9.49,0,0,1,3.81,1.74l2-.37c-4.89-4.14-11-8.06-17.78-4.81-1.57.75-1.07.75-2.64,0-6.77-3.25-12.9.67-17.78,4.81l2,.37a9.49,9.49,0,0,1,3.81-1.74l-1.24,1.22C8.24,25.54,3.62,31.69,3,37c1-.43,1.86-.76,2.28-.9A6.42,6.42,0,0,1,7,33a25.77,25.77,0,0,0,4,18.07,11.72,11.72,0,0,1,1.76-1.41,6.89,6.89,0,0,1-.6-4.69c3.08,6.32,6.49,10.09,14.65,12.77l.17-.06.17.06C35.3,55.1,38.72,51.33,41.79,45a6.89,6.89,0,0,1-.6,4.69A11.72,11.72,0,0,1,43,51.11,25.77,25.77,0,0,0,47,33a6.42,6.42,0,0,1,1.67,3.09c.42.14,1.31.47,2.28.9ZM27,60.13l.17,0a11,11,0,0,0,1.68-.67c4.18-1.63,9.07-4.71,11.54-8.35a8.46,8.46,0,0,1,1.9,1.81l.8,1.08.78-1.09c2.49-3.48,5.33-10,5-15a20.51,20.51,0,0,1,2.5,1.16l1.42.8V38.43a16.31,16.31,0,0,0-1.48-6.08c.12-1.15,1.27-11.61,1.27-15.79v-.67l-.84-.1A10.13,10.13,0,0,1,42.94,8.6L42.77,8H38.15V3.87h-.43l-5.65,4-4.92-7h-.34l-4.92,7-5.65-4h-.33V8H11.18L11,8.6a10.08,10.08,0,0,1-8.82,7.22l-.78.07v.67c0,4.18,1.1,14.64,1.22,15.79a16.52,16.52,0,0,0-1.53,6.08v1.45l1.42-.8a20.5,20.5,0,0,1,2.5-1.16c-.29,5,2.55,11.53,5,15L10.88,54l.8-1.08a8.46,8.46,0,0,1,1.9-1.81c2.47,3.64,7.36,6.72,11.54,8.35a11,11,0,0,0,1.68.67l.17,0Zm.17-56,4.39,6.18L36,6.94V12.2H18V6.94l4.45,3.41,4.33-6.18ZM27,13.1H36v2.1a13.93,13.93,0,0,0-7.79.84c-1.63.67-.9.65-2.55,0A13.64,13.64,0,0,0,18,15.2V13.1ZM27.59,24,27,26.27,26.36,24a36,36,0,0,0-4.77-2.09,11.64,11.64,0,0,0-1.79-.55c-1.35.78-5.92,6.73-7.14,8.48a15.16,15.16,0,0,1,4.43-.42,58.11,58.11,0,0,0-2.86,5.25,5.59,5.59,0,0,1,4.18,1.89,10.62,10.62,0,0,1,1.25-2.24,14.28,14.28,0,0,0,0,6.53A3.11,3.11,0,0,0,20.87,42a34.56,34.56,0,0,0,3.34-1.29A5.58,5.58,0,0,1,26.15,40V38.88c-2.47-1.81-3.24-3.46-3-4.06a13.44,13.44,0,0,0,7.76,0c.23.6-.5,2.25-3,4.06V40a5.33,5.33,0,0,1,1.88.62A34,34,0,0,0,33.09,42a3.11,3.11,0,0,0,1.2-1.08,14.28,14.28,0,0,0,0-6.53,10.62,10.62,0,0,1,1.25,2.24,5.59,5.59,0,0,1,4.18-1.89,58.08,58.08,0,0,0-2.86-5.25,15.16,15.16,0,0,1,4.43.42c-1.22-1.76-5.79-7.7-7.14-8.48a11.64,11.64,0,0,0-1.79.55A36,36,0,0,0,27.59,24ZM27,41.52h.28a4.71,4.71,0,0,1,1.6.48A32.7,32.7,0,0,0,32,43.25a20.62,20.62,0,0,1,0,4.21,8.75,8.75,0,0,0-1.63-1.83,26.52,26.52,0,0,1-.39,3,9,9,0,0,0-1.78-2.53A20.33,20.33,0,0,1,27,50.89a20.33,20.33,0,0,1-1.17-4.8A9,9,0,0,0,24,48.62a26.52,26.52,0,0,1-.39-3A8.75,8.75,0,0,0,22,47.46a20.62,20.62,0,0,1,0-4.21A32.7,32.7,0,0,0,25.09,42a4.71,4.71,0,0,1,1.6-.48Zm0,11.63A6.15,6.15,0,0,0,29,50c.18.25,1,1.23,1.18,1.62A7.86,7.86,0,0,0,31.31,49l.63,1.67a10.24,10.24,0,0,0,1.87-7.26,5,5,0,0,0,2.21-2l0-.08,0-.09a6.94,6.94,0,0,0,0-2.89c2.39-2.76,4.75-2.35,6.38-1.71A27.18,27.18,0,0,0,40,31.19a22.33,22.33,0,0,1,4.94,1.26c-1.44-2.61-7.34-11-9.74-12.35-.67-.39-2-.13-3.55.39a39.75,39.75,0,0,0-4.69,2,39.75,39.75,0,0,0-4.69-2c-1.51-.52-2.88-.77-3.55-.39C16.35,21.49,10.45,29.84,9,32.45A22.33,22.33,0,0,1,14,31.19a27.19,27.19,0,0,0-2.48,5.46c1.64-.63,4-1,6.39,1.71a6.94,6.94,0,0,0,0,2.89l0,.09,0,.08a5,5,0,0,0,2.21,2A10.24,10.24,0,0,0,22,50.67L22.64,49a7.86,7.86,0,0,0,1.17,2.63c.21-.39,1-1.37,1.18-1.62a6.15,6.15,0,0,0,2,3.14ZM15.91,9.52v6.13C11.32,17,7.56,20.11,4.27,23.15l4,.74a24.18,24.18,0,0,0-4.12,5.38c-.34-3.43-.83-8.89-.9-12a12.27,12.27,0,0,0,9.38-7.72Z"/></svg>