<svg id="Layer_1" data-name="Layer 1" xmlns="http://www.w3.org/2000/svg" viewBox="0 0 13.96 13.96"><defs><style>.cls-1{fill:#ffe459;}</style></defs><title>Artboard 4 copy</title><path class="cls-1" d="M3.87,9.07a1.28,1.28,0,0,1-.36-1.46A13.11,13.11,0,0,1,5.13,5.75h0l.3-.31.31-.3h0A13.15,13.15,0,0,1,7.62,3.51a1.27,1.27,0,0,1,1.46.36c.28.36.6,1,.8,1A9.25,9.25,0,0,0,14,2.29S14,1.82,13,1A3.87,3.87,0,0,0,10.1,0s-.84.11-3,1.73A22.63,22.63,0,0,0,4.21,4.21,22.65,22.65,0,0,0,1.76,7.07C.14,9.26,0,10.1,0,10.1A3.87,3.87,0,0,0,1,13c.82,1,1.29.93,1.29.93a9.25,9.25,0,0,0,2.6-4.08C4.85,9.68,4.23,9.35,3.87,9.07Z"/></svg>